<?xml version="1.0" encoding="utf-8"?>
<!-- Generator: Adobe Illustrator 16.0.4, SVG Export Plug-In . SVG Version: 6.00 Build 0)  -->
<!DOCTYPE svg PUBLIC "-//W3C//DTD SVG 1.1//EN" "http://www.w3.org/Graphics/SVG/1.1/DTD/svg11.dtd">
<svg version="1.1" id="Layer_1" xmlns="http://www.w3.org/2000/svg" xmlns:xlink="http://www.w3.org/1999/xlink" x="0px" y="0px"
	 width="60px" height="60px" viewBox="-10 -10 60 60" enable-background="new -10 -10 60 60" xml:space="preserve">
<g>
	<path d="M12.06,47.776c-0.498-0.154-0.804-0.688-0.651-1.186l0,0c0.153-0.518,0.688-0.803,1.186-0.652l0,0
		c0.516,0.135,0.802,0.671,0.65,1.186l0,0c-0.116,0.402-0.498,0.688-0.917,0.688l0,0C12.232,47.812,12.155,47.793,12.06,47.776z
		 M26.83,47.088c-0.135-0.497,0.155-1.032,0.651-1.186l0,0c0.516-0.154,1.031,0.133,1.184,0.648l0,0
		c0.154,0.501-0.131,1.034-0.63,1.188l0,0c-0.096,0.021-0.194,0.038-0.286,0.038l0,0C27.347,47.776,26.961,47.505,26.83,47.088z
		 M-1.394,39.157c-0.343-0.402-0.305-0.995,0.095-1.34l0,0c0.402-0.344,0.994-0.304,1.357,0.095l0,0
		c0.344,0.402,0.305,0.994-0.095,1.341l0,0c-0.192,0.152-0.402,0.228-0.631,0.228l0,0C-0.935,39.481-1.202,39.384-1.394,39.157z
		 M40.093,39.177c-0.4-0.346-0.437-0.957-0.092-1.356l0,0c0.342-0.402,0.953-0.439,1.335-0.095l0,0
		c0.401,0.344,0.46,0.955,0.116,1.356l0,0l0,0l0,0c-0.193,0.208-0.458,0.326-0.728,0.326l0,0
		C40.491,39.405,40.264,39.328,40.093,39.177z M-8.062,24.673c-0.077-0.536,0.286-1.014,0.803-1.09l0,0
		c0.535-0.079,1.014,0.286,1.09,0.803l0,0c0.077,0.519-0.286,1.013-0.801,1.089l0,0c-0.059,0-0.096,0-0.153,0l0,0
		C-7.584,25.475-7.986,25.127-8.062,24.673z M46.973,25.358c-0.518-0.074-0.879-0.551-0.803-1.087v0.021
		c0.078-0.533,0.556-0.899,1.07-0.823l0,0c0.518,0.076,0.898,0.554,0.823,1.071l0,0c0,0,0,0,0,0.021l0,0
		c-0.076,0.456-0.479,0.802-0.958,0.802l0,0C47.067,25.358,47.027,25.358,46.973,25.358z M-5.367,10.112
		c-0.477-0.21-0.687-0.782-0.477-1.261l0,0c0.229-0.478,0.784-0.688,1.26-0.478l0,0c0.496,0.229,0.707,0.784,0.478,1.262l0,0
		c-0.154,0.363-0.498,0.572-0.86,0.572l0,0C-5.101,10.207-5.234,10.169-5.367,10.112z M44.029,9.539
		c-0.208-0.478,0-1.031,0.477-1.262l0,0c0.479-0.229,1.051,0,1.262,0.478l0,0c0,0,0,0,0-0.019l0,0
		c0.229,0.498,0.021,1.052-0.457,1.28l0,0c-0.136,0.056-0.271,0.076-0.403,0.076l0,0C44.545,10.092,44.201,9.902,44.029,9.539z
		 M4.301-1.927C4.014-2.367,4.13-2.958,4.569-3.246l0,0l0,0l0,0c0.459-0.286,1.032-0.172,1.319,0.288l0,0
		c0.287,0.439,0.171,1.031-0.268,1.317l0,0C5.448-1.546,5.275-1.487,5.104-1.487l0,0C4.779-1.487,4.473-1.641,4.301-1.927z
		 M34.281-1.698c-0.455-0.287-0.572-0.879-0.306-1.318l0,0c0.306-0.458,0.881-0.572,1.34-0.286l0,0
		c0.439,0.286,0.552,0.86,0.285,1.319l0,0c-0.192,0.287-0.497,0.439-0.804,0.439l0,0C34.605-1.546,34.438-1.603,34.281-1.698z
		 M19.933-5.902c-0.019,0.018-0.039,0.018-0.059,0.018l0,0c-0.515,0-0.956-0.438-0.956-0.954l0,0c0-0.535,0.421-0.955,0.956-0.974
		l0,0c0.02,0,0.038,0.019,0.059,0.019l0,0c0.019,0,0.038-0.019,0.057-0.019l0,0c0.535,0,0.955,0.439,0.955,0.974l0,0
		c0,0.516-0.42,0.954-0.955,0.954l0,0C19.971-5.884,19.952-5.884,19.933-5.902z"/>
</g>
</svg>
